<?xml version="1.0" standalone="no"?><!DOCTYPE svg PUBLIC "-//W3C//DTD SVG 1.1//EN" "http://www.w3.org/Graphics/SVG/1.1/DTD/svg11.dtd"><svg t="1520308397379" class="icon" style="" viewBox="0 0 1024 1024" version="1.1" xmlns="http://www.w3.org/2000/svg" p-id="663" xmlns:xlink="http://www.w3.org/1999/xlink" width="200" height="200"><defs><style type="text/css"></style></defs><path d="M1004.50496 447.488L549.65696 15.36 549.40096 15.168a48 48 0 0 0-1.408-1.28L547.41696 13.312a76.48 76.48 0 0 0-1.728-1.472L545.30496 11.712A75.52 75.52 0 0 0 543.38496 10.176a53.568 53.568 0 0 0-68.992 5.312L19.54496 447.488a65.92 65.92 0 0 0-5.376 87.68 54.08 54.08 0 0 0 80.64 5.888l39.168-37.248v364.48C133.97696 954.112 198.29696 1024 277.27296 1024h85.376c31.552 0 57.152-27.776 57.152-62.08v-293.248c0-17.28 12.992-31.424 28.928-31.424h126.528c16 0 28.992 14.08 28.992 31.36v286.016c0 4.224 0.384 8.448 1.216 12.672l1.344 7.232c5.568 28.8 28.928 49.472 56 49.472h83.968c78.976 0 143.296-69.888 143.296-155.712V503.808l39.168 37.248c10.88 10.24 24.256 15.36 37.632 15.36a55.232 55.232 0 0 0 43.008-21.248 65.92 65.92 0 0 0-5.376-87.68z" p-id="664"></path></svg>