<?xml version="1.0" standalone="no"?><!DOCTYPE svg PUBLIC "-//W3C//DTD SVG 1.1//EN"
        "http://www.w3.org/Graphics/SVG/1.1/DTD/svg11.dtd">
<svg t="1520319240110" class="icon" style="" viewBox="0 0 1024 1024" version="1.1" xmlns="http://www.w3.org/2000/svg"
     p-id="924" xmlns:xlink="http://www.w3.org/1999/xlink" width="200" height="200">
    <defs>
        <style type="text/css"></style>
    </defs>
    <path d="M986.633162 512.215579l-217.573053-231.747368a34.061474 34.061474 0 0 0-50.122105 0 39.720421 39.720421 0 0 0 0 53.409684l156.186948 166.373052h-489.364211c-19.509895 0-35.462737 17.030737-35.462737 37.834106 0 20.803368 15.952842 37.834105 35.462737 37.834105h490.981053l-157.80379 168.097684a39.720421 39.720421 0 0 0 0 53.409684 34.061474 34.061474 0 0 0 50.122105 0l217.573053-231.747368a39.450947 39.450947 0 0 0 0-53.463579z"
          p-id="925" fill="#ffffff"></path>
    <path d="M639.982215 826.960842c-18.701474 0-33.684211 16.168421-33.684211 36.271158v39.882105c0 26.624-20.210526 48.343579-44.94821 48.343579H139.246215c-24.737684 0-44.948211-21.719579-44.948211-48.343579V120.885895c0-26.624 20.210526-48.343579 44.948211-48.343579h422.103579c24.737684 0 44.948211 21.719579 44.94821 48.343579v39.882105c0 20.102737 14.982737 36.271158 33.684211 36.271158 18.647579 0 33.684211-16.168421 33.68421-36.271158v-39.882105C673.666425 54.218105 623.274846 0 561.349794 0H139.246215C77.321162 0 26.929583 54.218105 26.929583 120.885895v782.22821C26.929583 969.781895 77.321162 1024 139.246215 1024h422.103579C623.274846 1024 673.666425 969.781895 673.666425 903.114105v-39.882105c0-19.941053-15.144421-36.271158-33.68421-36.271158z"
          p-id="926" fill="#ffffff"></path>
</svg>