<?xml version="1.0" standalone="no"?><!DOCTYPE svg PUBLIC "-//W3C//DTD SVG 1.1//EN" "http://www.w3.org/Graphics/SVG/1.1/DTD/svg11.dtd"><svg t="1520320495719" class="icon" style="" viewBox="0 0 1024 1024" version="1.1" xmlns="http://www.w3.org/2000/svg" p-id="955" xmlns:xlink="http://www.w3.org/1999/xlink" width="300" height="300"><defs><style type="text/css"></style></defs><path d="M875.523025 754.036364L815.013935 646.981818v-121.018182-37.236363c0-41.890909 0-88.436364-9.309091-130.327273-27.927273-107.054545-116.363636-200.145455-218.763637-232.727273v-9.309091c0-46.545455-37.236364-83.781818-83.781818-83.781818s-83.781818 37.236364-83.781818 83.781818v9.309091c-102.4 32.581818-195.490909 125.672727-218.763636 232.727273-9.309091 41.890909-9.309091 88.436364-9.309091 130.327273V646.981818L130.795753 754.036364c-4.654545 18.618182-18.618182 37.236364-13.963637 60.509091 4.654545 27.927273 23.272727 46.545455 55.854546 46.545454h195.490909c9.309091 69.818182 69.818182 121.018182 139.636364 121.018182s130.327273-51.2 139.636363-121.018182h195.490909c27.927273 0 51.2-18.618182 55.854546-46.545454 0-23.272727-13.963636-41.890909-23.272728-60.509091zM507.813935 79.127273c18.618182 0 32.581818 13.963636 37.236363 32.581818-13.963636 0-23.272727-4.654545-37.236363-4.654546h-4.654546c-9.309091 0-23.272727 0-32.581818 4.654546 0-18.618182 13.963636-32.581818 37.236364-32.581818z m0 856.436363c-46.545455 0-83.781818-32.581818-93.09091-74.472727h186.181819c-13.963636 46.545455-51.2 74.472727-93.090909 74.472727z m330.472727-116.363636H172.686662c-9.309091-4.654545-9.309091-4.654545-9.309091-9.309091 0-9.309091 4.654545-18.618182 13.963636-32.581818l65.163637-116.363636v-134.981819-37.236363c0-41.890909 0-79.127273 9.309091-121.018182 27.927273-116.363636 144.290909-209.454545 251.345454-214.109091h4.654546c111.709091 0 228.072727 97.745455 256 214.109091 9.309091 37.236364 9.309091 79.127273 9.30909 121.018182v172.218182l65.163637 116.363636c9.309091 13.963636 13.963636 23.272727 13.963636 32.581818-4.654545 4.654545-4.654545 4.654545-13.963636 9.309091z" p-id="956" fill="#ffffff"></path></svg>